<?xml version="1.0" encoding="UTF-8"?>
<svg id="Camada_1" data-name="Camada 1" xmlns="http://www.w3.org/2000/svg" viewBox="0 0 465.16 575.29">
  <defs>
    <style>
      .cls-1 {
        fill: #912c61;
      }
    </style>
  </defs>
  <path class="cls-1" d="M309.83,329.93c6.03-5.24,18-9.7,25.79-14.44,55.82-30.45,94.18-86.87,102.03-149.38,1.79-20.07,6.31-71.94-15.38-76.5-21.46-3.19-47.36,6.61-68.59,8.96-9.7,1.54-16.4,1.82-19.6-.31-3.85-2.39-3.11-8.16-1.75-16.54,1.21-7.38,2.56-16.69,1.53-25.63-2.62-30.11-29.15-54.97-59.3-55.95-44.64-3.18-78.4,42.77-62.64,84.27,3.32,9.29,8.79,17.38,12.56,23.22,4.86,7.45,6.4,11.46.46,14.1-23.72,7.08-65.2,12.44-93.97,18.61-27.82,5.95-54.42,8.56-80.08,16.1-17.55,5.98-5.05,36.01-.05,52.01,9.49,26.97,25.55,51.25,44.94,71.98,6.3,7.16,14.17,15.64-.84,14.07-12.46-1.06-39.41-6.97-57.62-9.83-22.99-4.06-33.44,2.67-35.57,28-2.46,20.6-2.39,42.32.69,62.94,12.49,90.3,82.69,169.06,171.06,191.46,112.48,31.68,238.52-30.97,279.72-141.76,4.45-14.82,20.62-49.54,5.88-60.33-3.94-2.81-9.72-4.34-15.03-5.44-29.49-5.58-88.32-16.27-118.82-21.97-3.68-1.1-19.27-2.44-15.59-7.43l.19-.21ZM271.28,39.25c40.7,3.48,26.93,63.2-11.35,48.15-23.9-11.1-15.76-47.95,10.51-48.15h.85ZM89.81,197.05c-1-9.5,7.7-8.36,22.27-11.59,12.73-2.39,25.18-4.74,38.25-7.19,66.38-11.36,194.99-38.87,243.22-44.47,8.53,3.61,5.14,17.07,3.93,30.05-4.73,32.49-19.69,63.33-42.26,87.13-79.93,85.52-226.55,56.78-265.36-53.5l-.06-.42ZM199.31,530.69c-59.72-10.73-111.54-50.37-138.24-104.61-10.45-20.95-16.91-43.6-19.21-66.55-.19-8.66-4.66-30.51,5.64-32.61,59.08,9.63,308.15,55.7,366.75,67.91,10.78,6.07-9.92,38.83-17.42,51.44-9.53,14.56-20.93,27.66-33.8,39.03-43.73,38.98-104.82,56.28-162.84,45.55l-.88-.16Z"/>
</svg>