<?xml version="1.0" encoding="UTF-8"?>
<svg id="Camada_1" data-name="Camada 1" xmlns="http://www.w3.org/2000/svg" viewBox="0 0 485.33 383.4">
  <defs>
    <style>
      .cls-1 {
        fill: #fca23b;
      }
    </style>
  </defs>
  <path class="cls-1" d="M471.55,57.02C443.67,7.17,379.5-8.26,327.81,4c-22.67,4.8-44.19,13.88-63.58,26.71-10.09,7.24-22.49,11.84-33.94,5.17C165.13-10.56,58.51-19.56,13.65,57.96c-35.55,66.82,2.93,143.49,62.42,193.53,45.25,40.52,114.35,95.42,153.3,126.15,9.23,7.91,18.4,7.54,27.38-.32,36.15-28.42,88.01-70.15,125.53-101.99,29.98-25.86,56.32-47.59,78.37-81.65,27.56-41.39,33.06-98.33,11.26-136.01l-.37-.65ZM75.83,183.89C27.76,128.49,37.34,48.27,122.63,48.06c25.93.07,54.08,9.12,74.52,22.95,12.31,7.58,11.24,18.92,3.62,29.93-25.89,40.87-41.82,89.7-49.03,137.4-2.68,13.81-14.89,2.46-21.04-2.47-20.77-17.52-38.98-33.21-54.37-51.37l-.5-.6ZM242.52,324.66c-6.56-.2-12.12-4.84-17.1-8.91-16.12-12.09-28.7-25.09-27.22-47.71,2.93-43.64,9.77-80.89,26.65-118.44,11.75-26.46,19.9-37.75,34.51-3.21,17.36,37.97,26.17,76.07,30.08,120,2.11,23.29-11.58,35.79-28.01,48.38-5.34,4.37-11.22,9.68-18.31,9.88h-.59ZM409.8,184.37c-15.26,18.32-33.46,34.19-54.14,51.77-16.25,14.66-20.45,3.85-23.52-13.28-8.43-42.7-24.01-82.94-46.05-120.06-8.66-12.66-11.01-24.33,3.56-33,13.73-8.97,30.08-15.9,47.71-19.56,25.25-5.26,53.67-3.86,75.55,10.91,42.36,28.65,26,90.14-2.62,122.61l-.5.61Z"/>
</svg>