<?xml version="1.0" encoding="UTF-8"?>
<svg id="Camada_1" data-name="Camada 1" xmlns="http://www.w3.org/2000/svg" viewBox="0 0 498.13 433.2">
  <defs>
    <style>
      .cls-1 {
        fill: #912c61;
      }
    </style>
  </defs>
  <g id="aH5tPx.tif">
    <path class="cls-1" d="M1.19,342.64c-2.82-16.41,4.11-27.75,21.05-27.61,16.59-.4,33.46,0,50.02-.18,4.49-.55,15.69.95,16.54-4.54-.38-4.02-8.43-9.64-12.29-13.21-16.64-13.8-30.42-30.89-40.99-49.79C14.47,209.84,4.91,167.12,1.1,124.85c-.52-12.24-3.23-27.1,2.4-38.15,4.88-8.7,16.09-9.16,25.28-8.57,36.67,2.44,72.9,10.18,106.56,24.76,6.81,2.84,15.07,6.48,22.18,4.56,8.19-2.09,12.72-11.19,16.41-18.49,13.89-28.86,32.26-54.6,54.48-77.44,13.51-15.09,27.68-15.58,41.42-.19,23.05,23.6,41.85,50.53,56.04,80.44,7.79,17.6,19.28,19.79,35.81,11.74,34.23-14.86,70.17-22.94,107.13-25.35,18.74-1.96,30.16,5.61,29.27,25.77-.2,19.58-2.22,39.25-5.78,58.51-8.4,44.25-25.04,88.79-55.84,121-7.15,8.44-19.09,16.04-25.58,24.44-5.14,6.61,10.02,7,15.72,6.95,19.47.96,39.85-2.11,58.77,1.92,20.83,7.62,9.9,37.69,2.85,52.88-24,44.79-78.87,65.42-127.4,63.43-31.13-1.29-62.31-9.75-87.3-27.67-6.92-4.91-15.52-11.77-23.8-11.36-6.37-.04-13.48,4.54-19.11,8.66-19.24,14.49-42.21,23.76-65.93,27.73-63.83,11.77-152.86-13.72-163.39-86.99l-.11-.81ZM307.57,178.59c.21-42.05-18.78-83.22-43.36-116.78-6.14-8.75-15.06-16.21-24.3-6.68-39.58,47.08-62.51,113.33-40.11,173.48,8.11,23.87,20.31,45.48,35.05,65.4,5.06,6.83,12.8,13.86,20.72,8.16,2.92-1.94,5.68-5.05,7.96-8.05,23.83-32.33,43.72-73.63,44.04-114.65v-.87ZM303.59,301.98c1.2,1.94,4.66,2.39,9.57,1.78,9.69-1.42,19.59-4.29,29.29-7.37,26.83-8.74,52.41-22.58,71.41-43.73,26.8-29.81,39.45-69.46,45.7-107.51,1.06-6.6,2.45-16.27-2.25-21.02-12.24-12.08-87.23,15.26-100.72,25.59-11.45,7.6-12.76,21.43-12.91,34.12-1.52,33.87-13.19,66.06-30.36,95.54-3.14,6.55-11.54,15.4-9.91,22.3l.17.3ZM194.98,301.82c1.04-1.64.47-4.34-1.22-7.81-4.48-8.42-10.29-16.87-14.61-25.54-13.91-26.68-23.21-54.91-24.38-84.48.48-14.93-3.29-30.63-17.98-37.39-25.17-13.1-52.81-21.18-80.8-25.48-6.73-.75-14.8-.82-17.47,6.66-2.81,13.78,2.68,28.71,5.23,42.38,9.08,36.46,25.63,72.72,55.98,96.76,23.45,18.9,52.59,29.99,81.81,36.1,4.33.92,11.88,1.56,13.23-.91l.2-.28ZM44.85,356.18c-.75,1.77.27,4.19,2.66,6.9,4.54,5.01,11.3,9.44,17.48,12.75,39.1,20.02,87.77,19.84,128.68,3.86,7.06-2.49,43.01-21.27,23.29-26.57-51.97-2.35-105.02-.17-157.18-.87-4.76.09-12.68.12-14.77,3.6l-.16.33ZM276.25,356.09c-.71,1.63.36,3.87,2.86,6.42,4.31,4.26,10.17,7.99,15.66,11.09,43.94,24.09,103.7,24.46,146.57-3.62,5.91-3.98,18.24-14.23,5.19-16.73-51.79-2.11-103.99-.15-156.16-.76-4.42.08-12.14.26-13.98,3.32l-.15.3Z"/>
  </g>
</svg>