<?xml version="1.0" encoding="UTF-8"?>
<svg xmlns="http://www.w3.org/2000/svg" viewBox="0 0 651.48 419.38">
  <path fill="#fca23b" stroke="#fca23b" stroke-width="4" d="M608.35,309.12c-4.46-22.37-20.35-40.74-35.24-58.4-3.76-6.47,4.15-10.82,9.71-14.58,188.25-125.33-51.57-294.65-228.44-137.13-7.78,6.9-6.96,2.26-5.1-4.72,6.86-24.69,17.24-47.48,30.85-66.92,8.81-10.88,8.95-27.07-8.24-27.36-19.5,1.24-29.53,32.78-38.82,53.18-.94,1.82-2.41,5.2-4.17,5.35-2.02.08-3.21-3.79-3.99-5.83-7.03-20.35-12.71-51.44-33.32-51.66-13.88.94-15.18,15.2-9.06,25.23,8.99,16.83,15.86,35.45,20.14,55.28,2.01,8.74-.84,8.32-7.82,1.43C141.26-69.94-115.88,64.61,58.26,211.38c7.91,6.37,9.25,12.81,1.76,20.07-159.35,154.56,161.66,269.72,250.87,42.29,1.65-4.2,3.09-8.16,4.26-11.54,1.74-4.75,2.72-9.13,4.38-5.72,33.35,187.29,303.29,223.8,288.93,53.16l-.09-.53ZM572.32,72.61c72.3,28.98,54.7,131.07-20.56,146.87-65.88-14.66-126.3-78.72-201.08-58.18-2.64.67-7.85,2.17-9.17.93-.99-.77-.51-2.65.83-5.13,40.83-69.54,158-110.42,222.42-87.57,2.25.8,4.58,1.73,7.09,2.86l.47.21ZM41.88,157.08C-.03,92.16,75.39,34.54,143.47,41.99c45.64,7.3,156.79,51.45,164.77,112.76.38,7-9.23,5.16-14.46,3.88-120.97-25.97-193.32,94.86-251.58-1.03l-.32-.53ZM264.4,297.14c-63.6,136.67-315.81,67.84-179.96-48.54,6.51-5.13,9.92-10.29,17.49-11.55,3.16-.33,6.87.75,10.06,1.89,53.03,18.9,113.77,24.15,168.32,11.94,7.1-1.56,6.54,2.93,4.21,8-5.62,13.18-12.72,25.45-19.84,37.75l-.28.51ZM283.74,220c-41.84,14.03-92.74,10.42-139.52-.92-3.69-.99-10.31-2.89-4.51-6.01,37.12-22.71,223.64-49.21,144.53,6.66l-.49.27ZM343.65,197.62c40.81-29.71,112.81,8.72,157.01,33.24,3.95,2.42,3.66,3.9-.67,4.66-47.91,6.68-137.11,5.72-156.43-37.58l.09-.31ZM575.17,355.18c-82.04,97.17-219.43-17.26-227.14-108.33,1.3-2.56,6.39-.1,8.93,1.01,50.42,22.53,108.23,24.77,166.85,10.78,3.92-.96,8.36-1.75,12.1-.72,3.26.8,6.25,2.98,8.78,5.32,26.39,24.07,51.36,59.32,30.81,91.45l-.34.49Z"/>
</svg>