<svg xmlns="http://www.w3.org/2000/svg" version="1.1" xmlns:xlink="http://www.w3.org/1999/xlink" width="500" height="500"><svg width="500" height="500" viewBox="0 0 500 500" version="1.1" xmlns="http://www.w3.org/2000/svg" xmlns:xlink="http://www.w3.org/1999/xlink" xml:space="preserve" xmlns:serif="http://www.serif.com/" style="fill-rule:evenodd;clip-rule:evenodd;stroke-linejoin:round;stroke-miterlimit:2;">
    <g transform="matrix(0.808928,0,0,0.808928,251.294,248.677)">
        <g id="SvgjsG1053" serif:id="ICON LOGO CLAU DE CARLO -  AZUL.svg" transform="matrix(1,0,0,1,-213.16,-293.905)">
            <clipPath id="SvgjsClipPath1052">
                <rect x="0" y="0" width="426.32" height="587.81"></rect>
            </clipPath>
            <g clip-path="url(#_clip1)">
                <path d="M405.69,492.94C362.72,443.6 301.52,470.8 248.05,493.71C240.99,496.28 241.33,492.68 243.73,487.11C245.58,482.88 247.81,478.23 249.57,473.88C268.58,427 271.32,383.93 251.46,340.96C248.6,335.05 245.21,329.27 241.47,323.72C234.69,314.56 236.64,308.3 246.37,302.97C277.89,284.11 323.92,275.77 356.64,295.08C384.42,313.25 379.71,349.66 361.23,373.07C349.23,388.94 334.51,398.88 318.03,409.39C314.36,411.86 309.39,414.31 309.1,419.19C309.04,424.74 313.67,432.15 317.86,435.35C321.98,438.58 326.97,435.57 330.82,433.17C351.81,420.11 372.04,405.68 386.31,384.47C427.83,322.79 390.69,256.96 316.22,257.43C284.09,256.63 251.78,266.53 224.89,285.06C217.91,290.05 211.84,291.01 204.74,286.26C152.97,247.74 47.72,239.25 26.48,313.73C14.03,364.68 54.17,408.76 96.89,433.13C100.59,435.34 104.9,438.22 109,435.9C113.72,432.94 119.85,423.89 118.38,417.53C117.59,414.47 113.71,411.87 110.53,409.88C101.7,404.34 92.99,398.58 85.01,392.04C59.46,372.99 39.22,332.09 59.87,305.7C86.53,272.04 150.3,282.84 182.55,303.68C193.02,309.73 191.7,316.47 185.21,325.32C181.58,330.82 178.37,336.5 175.63,342.33C155.46,385.63 160.5,433.95 180.48,479.36C185.3,490.73 176.17,486.03 170.3,483.47C128.04,463.28 63.62,452.2 28.1,481.34C-2.26,504.37 -2.31,549.37 29.51,571.28C58.3,592.84 104.87,586.48 137.76,575.82C149.72,572.05 161.32,567.44 172.76,562.43C174.97,561.45 177.39,560.27 179.02,558.69C184.53,553.48 177.72,539.49 171.85,536.53C167.2,534.28 159.18,539.28 152.99,541.56C123.32,553.37 83.84,566.15 53.03,553.68C40,548.33 29.58,534.06 33.64,519.5C48.8,477.72 113.02,489.46 145.86,502.43C213.19,528.26 281.99,587.93 353.02,587.79C404.55,588.15 439.92,536.43 405.98,493.27L405.7,492.92L405.69,492.94ZM217.02,483.69C213.35,489.57 210.14,483.34 208.33,479.32C187.72,433.62 181.82,388.7 201.96,346.32C204.94,341.27 207.77,332.84 213.29,330.95C218.75,330.93 221.61,339.4 224.39,343.77C246.77,387.59 240.03,436.76 217.24,483.35L217.02,483.68L217.02,483.69ZM393.59,534.17C391.93,543.73 384.15,551.93 375.32,556.01C338.13,571.15 293.53,547.83 256.29,529.86C243.37,523.72 249.01,521.19 259.3,517.07C298.56,501.64 331.24,485.32 361.39,494.25C379.13,499.43 396.45,514.16 393.67,533.74L393.6,534.16L393.59,534.17Z" style="fill:rgb(199,76,73);fill-rule:nonzero;"></path>
                <path d="M212.93,131.8C180,131.48 152.26,160.85 154.63,193.79C158.75,255.07 241.43,269.95 266.81,214.17C284.03,176.19 255.28,131.58 213.4,131.8L212.93,131.8ZM212.94,227.82C187.78,228.15 169.13,201.53 177.91,177.98C191.15,141.14 245.17,146.94 250.24,185.71C253.46,207.33 235.24,228.13 213.4,227.82L212.94,227.82Z" style="fill:rgb(199,76,73);fill-rule:nonzero;"></path>
                <g transform="matrix(0.22291,-0.974839,0.974839,0.22291,-138.56,186.97)">
                    <path d="M58.63,140.98C58.63,135.864 54.476,131.71 49.36,131.71L46.64,131.71C41.524,131.71 37.37,135.864 37.37,140.98L37.37,219.81C37.37,224.926 41.524,229.08 46.64,229.08L49.36,229.08C54.476,229.08 58.63,224.926 58.63,219.81L58.63,140.98Z" style="fill:rgb(199,76,73);"></path>
                </g>
                <path d="M419.11,182L342.28,199.53C337.29,200.67 332.32,197.55 331.18,192.56L330.57,189.91C329.43,184.92 332.55,179.94 337.55,178.8L414.39,161.27C419.38,160.13 424.36,163.26 425.49,168.25L426.09,170.9C427.23,175.89 424.1,180.86 419.11,182Z" style="fill:rgb(199,76,73);fill-rule:nonzero;"></path>
                <path d="M112.4,135.99L110.7,138.12C107.51,142.13 101.67,142.79 97.66,139.59L43.27,96.22C39.27,93.03 38.61,87.19 41.8,83.19L43.5,81.05C46.69,77.05 52.53,76.39 56.53,79.58L110.92,122.96C114.92,126.15 115.58,131.98 112.39,135.99L112.4,135.99Z" style="fill:rgb(199,76,73);fill-rule:nonzero;"></path>
                <path d="M383.06,96.22L328.67,139.59C324.66,142.78 318.83,142.12 315.63,138.11L313.93,135.98C310.74,131.98 311.4,126.15 315.4,122.95L369.79,79.57C373.79,76.38 379.63,77.03 382.82,81.04L384.52,83.18C387.71,87.18 387.06,93.02 383.05,96.21L383.06,96.22Z" style="fill:rgb(199,76,73);fill-rule:nonzero;"></path>
                <g transform="matrix(0.90085,-0.434131,0.434131,0.90085,-11.49,64.65)">
                    <path d="M146.45,26.93C146.45,21.814 142.296,17.66 137.18,17.66L134.46,17.66C129.344,17.66 125.19,21.814 125.19,26.93L125.19,88.04C125.19,93.156 129.344,97.31 134.46,97.31L137.18,97.31C142.296,97.31 146.45,93.156 146.45,88.04L146.45,26.93Z" style="fill:rgb(199,76,73);"></path>
                </g>
                <g transform="matrix(0.433816,-0.901001,0.901001,0.433816,112.68,294.29)">
                    <path d="M330.34,56.12C330.34,51.004 326.186,46.85 321.07,46.85L259.96,46.85C254.844,46.85 250.69,51.004 250.69,56.12L250.69,58.83C250.69,63.946 254.844,68.1 259.96,68.1L321.07,68.1C326.186,68.1 330.34,63.946 330.34,58.83L330.34,56.12Z" style="fill:rgb(199,76,73);"></path>
                </g>
                <path d="M223.78,9.27C223.78,4.154 219.626,0 214.51,0L211.79,0C206.674,0 202.52,4.154 202.52,9.27L202.52,61.91C202.52,67.026 206.674,71.18 211.79,71.18L214.51,71.18C219.626,71.18 223.78,67.026 223.78,61.91L223.78,9.27Z" style="fill:rgb(199,76,73);"></path>
            </g>
        </g>
        <g id="SvgjsG1051" serif:id="ICON LOGO CLAU DE CARLO -  AZUL.svg">
        </g>
    </g>
</svg><style>@media (prefers-color-scheme: light) { :root { filter: none; } }
@media (prefers-color-scheme: dark) { :root { filter: contrast(0.3846153846153846) brightness(4.5); } }
</style></svg>